/* XPM */
static char *_4064e262b9d4e33f23a4708287c71aeYNBLug294AEHMO5x[] = {
/* columns rows colors chars-per-pixel */
"16 16 2 1 ",
"  c None",
". c #ffc27c",
/* pixels */
"                ",
"                ",
"                ",
"    .  ..       ",
"   ......       ",
" ...     ..     ",
"  ..     ..     ",
"  ........      ",
"  ..     ..     ",
"  ..      ..    ",
"  ..     ..     ",
" ..........     ",
"    .. ..       ",
"    .  ..       ",
"                ",
"                ",
};
